<svg width="89" height="73" viewBox="0 0 89 73" fill="none" xmlns="http://www.w3.org/2000/svg">
<path d="M12.9614 27.3829C5.06082 33.8193 -0.370137 46.4978 3.03599 57.4056C5.63636 65.7335 12.6945 70.9195 19.8207 72.4064C26.9469 73.8934 34.23 72.3118 41.3405 70.7356C47.4778 69.3747 53.6151 68.0139 59.7524 66.653C63.4044 65.8439 67.182 64.9717 70.2376 62.3708C76.3382 57.1744 78.3997 46.1037 85.2224 42.5361C86.431 41.9003 87.8437 41.4485 88.5396 40.0718C89.0471 39.0683 89.0419 37.7968 88.9477 36.6198C88.6495 32.9681 87.6187 29.4057 85.9811 26.3425C83.2813 21.2985 79.0485 17.7676 74.5855 15.2771C64.9845 9.91778 53.5784 9.29252 44.0403 15.1352C34.2614 21.1303 22.5937 19.5435 12.9614 27.3829Z" fill="#FFDCDC"/>
<path d="M25.0059 44.0714C25.0452 44.4809 25.4094 44.7859 25.8263 44.7466C28.4252 44.4987 31.0294 44.065 33.5666 43.4577C34.7782 43.1677 35.5293 41.9509 35.2408 40.7451C33.7814 34.6476 33.8839 27.444 34.8781 23.564C35.255 22.0943 35.8858 19.6345 35.538 16.4913C35.2776 14.1396 34.5195 11.8289 33.2847 9.62314C33.0822 9.26126 32.624 9.13208 32.2614 9.33383C31.8987 9.53576 31.7689 9.9926 31.9713 10.3543C33.1076 12.3841 33.8046 14.5043 34.0427 16.6559C34.3606 19.5275 33.795 21.733 33.4208 23.1924C32.3768 27.2622 32.2295 34.6252 33.7777 41.0933C33.8739 41.4955 33.6219 41.9019 33.2156 41.9991C30.7465 42.5902 28.2123 43.0122 25.6832 43.2533C25.2695 43.2928 24.9664 43.6591 25.0059 44.0714ZM0.000740051 17.6049C-0.0286865 19.0868 0.822517 20.4497 2.16908 21.0772C2.54617 21.2528 2.9934 21.0897 3.16892 20.7152C3.34473 20.3399 3.18227 19.8936 2.80593 19.7182C1.99778 19.3416 1.4871 18.5238 1.50459 17.6345L1.70653 7.42349C1.73962 5.75372 2.84025 4.32732 4.44554 3.87395L11.402 1.94083C10.2246 5.15297 10.8167 8.82195 13.063 11.5098C13.733 12.3116 14.7174 12.7972 15.7638 12.8425C16.1714 12.8627 16.5296 12.5443 16.5478 12.1257C16.5657 11.7119 16.244 11.3619 15.829 11.3439C15.2049 11.3169 14.6179 11.0273 14.2185 10.5494C12.2213 8.15952 11.7697 4.85194 12.979 2.04095L19.7479 10.2075V43.4945C15.7196 43.4388 11.6964 42.936 7.77749 41.9975C7.3753 41.9011 7.12626 41.4955 7.22252 41.0935C8.77065 34.6256 8.62343 27.2623 7.5795 23.1924C7.20532 21.733 6.63964 19.5275 6.9576 16.6559C7.19573 14.5043 7.89266 12.3842 9.02901 10.3543C9.23142 9.9927 9.10158 9.53586 8.73888 9.33383C8.37627 9.13217 7.91814 9.26145 7.71553 9.62314C6.48075 11.8288 5.72272 14.1396 5.4623 16.4913C5.11445 19.6345 5.74528 22.0944 6.12218 23.564C7.11657 27.4446 7.21858 34.6485 5.75948 40.7452C5.47095 41.9506 6.21864 43.1666 7.42625 43.4559C11.7039 44.4805 16.1025 45 20.5001 45C20.9155 45 21.2522 44.6642 21.2522 44.25V11.2301L23.2293 12.3567C24.793 13.2477 26.7746 12.901 27.9371 11.5098C30.1889 8.81539 30.7784 5.13497 29.5892 1.91711L36.5555 3.87432C38.1597 4.32741 39.2604 5.75381 39.2935 7.4234L39.4954 17.6346C39.5135 18.5539 38.978 19.3827 38.1313 19.7464C37.7497 19.9102 37.5737 20.3514 37.7379 20.7319C37.9016 21.1111 38.3437 21.2884 38.7262 21.1241C40.1373 20.5182 41.0295 19.1369 40.9993 17.6051L40.7973 7.39387C40.7512 5.05988 39.2114 3.06376 36.9644 2.43086C27.8154 -0.146598 28.3786 0.00424556 28.2377 0.00143307C28.0796 -0.00175441 27.9361 0.0297454 27.7891 0.128557C27.6594 0.215557 28.153 -0.351533 20.5036 8.76467L14.4823 1.50021H23.0748C23.4902 1.50021 23.8269 1.1644 23.8269 0.750211C23.8269 0.336025 23.4902 0.000214326 23.0748 0.000214326C14.8882 0.000214326 12.8913 -0.00100442 12.8382 0.00237057C12.6888 -0.00691064 12.5398 0.0282454 12.4109 0.103339L4.03864 2.42983C1.78907 3.06517 0.248749 5.05969 0.202682 7.39387L0.000740051 17.6049ZM21.6539 9.73133L28.0495 2.1093C29.2224 4.90547 28.7627 8.17883 26.7815 10.5496C26.0914 11.3751 24.9114 11.5877 23.9754 11.0542L21.6539 9.73133ZM24.7307 17.5314H25.4828C25.8981 17.5314 26.2349 17.8672 26.2349 18.2814C26.2349 18.6956 25.8981 19.0314 25.4828 19.0314H24.7307C24.3153 19.0314 23.9786 18.6956 23.9786 18.2814C23.9786 17.8672 24.3153 17.5314 24.7307 17.5314ZM24.7307 24.0313H25.4828C25.8981 24.0313 26.2349 24.3671 26.2349 24.7813C26.2349 25.1955 25.8981 25.5313 25.4828 25.5313H24.7307C24.3153 25.5313 23.9786 25.1955 23.9786 24.7813C23.9786 24.3671 24.3153 24.0313 24.7307 24.0313ZM24.7307 30.5313H25.4828C25.8981 30.5313 26.2349 30.8672 26.2349 31.2813C26.2349 31.6955 25.8981 32.0313 25.4828 32.0313H24.7307C24.3153 32.0313 23.9786 31.6955 23.9786 31.2813C23.9786 30.8672 24.3153 30.5313 24.7307 30.5313ZM24.7307 37.0313H25.4828C25.8981 37.0313 26.2349 37.3671 26.2349 37.7813C26.2349 38.1955 25.8981 38.5313 25.4828 38.5313H24.7307C24.3153 38.5313 23.9786 38.1955 23.9786 37.7813C23.9786 37.3671 24.3153 37.0313 24.7307 37.0313Z" fill="black"/>
</svg>
