<svg width="87" height="73" viewBox="0 0 87 73" fill="none" xmlns="http://www.w3.org/2000/svg">
<path d="M10.9614 27.3829C3.06082 33.8193 -2.37014 46.4978 1.03599 57.4056C3.63636 65.7335 10.6945 70.9195 17.8207 72.4064C24.9469 73.8934 32.23 72.3118 39.3405 70.7356C45.4778 69.3747 51.6151 68.0139 57.7524 66.653C61.4044 65.8439 65.182 64.9717 68.2376 62.3708C74.3382 57.1744 76.3997 46.1037 83.2224 42.5361C84.431 41.9003 85.8437 41.4485 86.5396 40.0718C87.0471 39.0683 87.0419 37.7968 86.9477 36.6198C86.6495 32.9681 85.6187 29.4057 83.9811 26.3425C81.2813 21.2985 77.0485 17.7676 72.5855 15.2771C62.9845 9.91778 51.5784 9.29252 42.0403 15.1352C32.2614 21.1303 20.5937 19.5435 10.9614 27.3829Z" fill="#FFDCDC"/>
<mask id="path-2-inside-1_0_1" fill="white">
<path d="M5.83267 36.4375C5.70767 36.4375 5.58017 36.4094 5.461 36.3506L0.460903 33.8662C0.128397 33.7006 -0.0541067 33.3362 0.014228 32.9727L5.01432 6.47274C5.09933 6.02307 5.53683 5.72495 5.98684 5.81107C6.43935 5.89554 6.73686 6.32865 6.65269 6.77749L1.76843 32.6638L6.20601 34.8691C6.61769 35.0736 6.78436 35.5713 6.57852 35.9804C6.43268 36.2711 6.13851 36.4384 5.83184 36.4384L5.83267 36.4375Z"/>
<path d="M17.5004 13.2501C17.1579 13.2501 16.8371 13.0389 16.7154 12.7002L12.5486 1.1065C12.3936 0.675881 12.6195 0.202195 13.0528 0.0481639C13.4878 -0.105039 13.9628 0.119382 14.1178 0.549178L18.2846 12.1429C18.4396 12.5735 18.2137 13.0472 17.7804 13.2012C17.6879 13.2344 17.5929 13.2501 17.5004 13.2501Z"/>
<path d="M16.1929 16.8938C15.927 16.8938 15.6654 16.768 15.5045 16.5328L10.1461 8.74842C9.99858 8.53477 9.96109 8.2648 10.0428 8.01885L12.5428 0.566569C12.6561 0.228695 12.9745 0.000132748 13.3336 0.000132748H17.5004C17.9604 0.000132748 18.3337 0.371132 18.3337 0.828256C18.3337 1.28538 17.9604 1.65638 17.5004 1.65638H13.9345L11.7553 8.153L16.8804 15.5978C17.1404 15.9755 17.0429 16.4905 16.6629 16.7489C16.5195 16.8466 16.3545 16.8938 16.1929 16.8938Z"/>
<path d="M17.5004 53C1.66676 53 1.66676 51.2585 1.66676 50.5156C1.66676 50.4477 1.67509 50.3806 1.69176 50.3144L7.5002 27.2263V23.2497L5.00932 6.74851C4.95099 6.36177 5.17266 5.98746 5.541 5.84999L11.7661 3.53125C12.1986 3.37225 12.6778 3.58756 12.8395 4.0157C13.0011 4.44384 12.7828 4.92167 12.352 5.08232L6.75852 7.16588L9.15857 23.065C9.1644 23.1056 9.16774 23.147 9.16774 23.1876V27.3282C9.16774 27.3961 9.1594 27.4632 9.14274 27.5294L3.41846 50.2821C6.49435 51.7048 28.5073 51.7048 31.584 50.2821L25.8597 27.5294C25.8431 27.4632 25.8347 27.3961 25.8347 27.3282V23.1876C25.8347 23.1462 25.8381 23.1056 25.8439 23.065L28.2439 7.16588L22.6505 5.08232C22.2197 4.92167 22.0013 4.44384 22.163 4.0157C22.3238 3.58756 22.8055 3.36976 23.2363 3.53125L29.4615 5.84999C29.8298 5.98746 30.0515 6.36177 29.9931 6.74851L27.5023 23.2497V27.2263L33.3107 50.3144C33.3274 50.3806 33.3357 50.4477 33.3357 50.5156C33.3357 51.2585 33.3357 53 17.5021 53H17.5004Z"/>
<path d="M29.1681 36.4375C28.8623 36.4375 28.5681 36.2703 28.4214 35.9796C28.2156 35.5705 28.3823 35.0728 28.7939 34.8682L33.2315 32.663L28.3473 6.77666C28.2623 6.32782 28.5606 5.89471 29.0131 5.81024C29.4656 5.72495 29.9006 6.02224 29.9856 6.47191L34.9857 32.9718C35.0541 33.3346 34.8724 33.6998 34.5391 33.8654L29.539 36.3498C29.419 36.4094 29.2923 36.4367 29.1673 36.4367L29.1681 36.4375Z"/>
<path d="M13.3336 24.8438C13.2053 24.8438 13.0761 24.8148 12.9553 24.7536C12.582 24.5639 12.4078 24.1292 12.5486 23.7366L20.4846 1.65638H17.5004C17.0404 1.65638 16.667 1.28538 16.667 0.828256C16.667 0.371132 17.0404 0.000132748 17.5004 0.000132748H21.648C21.7213 0.000132748 21.7988 0.00675773 21.8738 0.0258046C21.918 0.0373983 21.9613 0.0523045 22.003 0.0705232C22.1522 0.135117 22.2738 0.23946 22.3597 0.366163C22.3913 0.412538 22.418 0.463053 22.4405 0.516053C22.448 0.5351 22.4555 0.554975 22.4622 0.57485L24.9597 8.01968C25.0422 8.26563 25.0039 8.5356 24.8564 8.74925L14.0228 24.4836C13.8628 24.7163 13.602 24.8446 13.3345 24.8446L13.3336 24.8438ZM21.6396 3.36562L16.287 18.2586L23.2455 8.15217L21.6396 3.36562Z"/>
<path d="M26.6672 24.8438H8.33355C7.87355 24.8438 7.5002 24.4728 7.5002 24.0157C7.5002 23.5586 7.87355 23.1876 8.33355 23.1876H26.6672C27.1272 23.1876 27.5006 23.5586 27.5006 24.0157C27.5006 24.4728 27.1272 24.8438 26.6672 24.8438Z"/>
<path d="M26.6672 28.1563H8.33355C7.87355 28.1563 7.5002 27.7853 7.5002 27.3282C7.5002 26.8711 7.87355 26.5001 8.33355 26.5001H26.6672C27.1272 26.5001 27.5006 26.8711 27.5006 27.3282C27.5006 27.7853 27.1272 28.1563 26.6672 28.1563Z"/>
<path d="M14.8512 28.1563C14.3912 28.1563 14.0178 27.7853 14.0178 27.3282V24.0157C14.0178 23.5586 14.3912 23.1876 14.8512 23.1876C15.3112 23.1876 15.6845 23.5586 15.6845 24.0157V27.3282C15.6845 27.7853 15.3112 28.1563 14.8512 28.1563Z"/>
<path d="M19.1671 28.1563C18.7071 28.1563 18.3337 27.7853 18.3337 27.3282V24.0157C18.3337 23.5586 18.7071 23.1876 19.1671 23.1876C19.6271 23.1876 20.0004 23.5586 20.0004 24.0157V27.3282C20.0004 27.7853 19.6271 28.1563 19.1671 28.1563Z"/>
<path d="M17.5004 53C12.557 53 12.5003 28.3766 12.5003 27.3282C12.5003 26.8711 12.8736 26.5001 13.3337 26.5001C13.7937 26.5001 14.167 26.8711 14.167 27.3282C14.167 42.5383 16.322 50.9256 17.5287 51.3471C17.9887 51.3471 18.3479 51.7156 18.3479 52.1735C18.3479 52.6315 17.9604 53 17.5004 53Z"/>
<path d="M16.667 32.2969C16.5587 32.2969 16.4504 32.2804 16.3504 32.2307C16.2504 32.1893 16.1587 32.1313 16.0754 32.0568C15.9254 31.8994 15.8337 31.6841 15.8337 31.4688C15.8337 31.2535 15.9254 31.0382 16.0754 30.8808C16.1587 30.8063 16.242 30.7483 16.3504 30.7069C16.5504 30.6241 16.7837 30.6241 16.9837 30.7069C17.0921 30.7483 17.1754 30.8063 17.2587 30.8808C17.4087 31.0382 17.5004 31.2535 17.5004 31.4688C17.5004 31.6841 17.4087 31.8994 17.2587 32.0568C17.1754 32.1313 17.0837 32.1893 16.9837 32.2307C16.8837 32.2804 16.7754 32.2969 16.667 32.2969Z"/>
<path d="M17.5004 37.2657C17.2837 37.2657 17.0671 37.1746 16.9087 37.0255C16.7587 36.8682 16.667 36.6611 16.667 36.4375C16.667 36.2139 16.7587 36.0069 16.9087 35.8496C17.1421 35.6177 17.5087 35.5432 17.8171 35.6757C17.9171 35.7171 18.0087 35.775 18.0921 35.8496C18.2421 36.0069 18.3337 36.2222 18.3337 36.4375C18.3337 36.4955 18.3254 36.5452 18.3171 36.6032C18.3087 36.6529 18.2921 36.7025 18.2671 36.7522C18.2504 36.8019 18.2254 36.8516 18.1921 36.9013C18.1671 36.9427 18.1254 36.9841 18.0921 37.0255C18.0087 37.1 17.9171 37.158 17.8171 37.1994C17.7171 37.2408 17.6087 37.2657 17.5004 37.2657Z"/>
<path d="M18.3337 43.0625C18.2254 43.0625 18.1171 43.0377 18.0171 42.9963C17.9171 42.9549 17.8254 42.8969 17.7421 42.8224C17.7087 42.781 17.6754 42.7396 17.6421 42.6982C17.6087 42.6485 17.5837 42.5988 17.5671 42.5491C17.5421 42.4994 17.5254 42.4497 17.5171 42.4C17.5087 42.3421 17.5004 42.2924 17.5004 42.2344C17.5004 42.1267 17.5254 42.0191 17.5671 41.9197C17.6087 41.8203 17.6671 41.7292 17.7421 41.6464C17.8254 41.5719 17.9171 41.5139 18.0171 41.4725C18.1671 41.4063 18.3337 41.3897 18.5004 41.4228C18.5504 41.4311 18.6004 41.4477 18.6504 41.4725C18.7004 41.4891 18.7504 41.5139 18.8004 41.5471C18.8421 41.5719 18.8838 41.6133 18.9254 41.6464C19.0004 41.7292 19.0588 41.8203 19.1004 41.9197C19.1421 42.0191 19.1671 42.1267 19.1671 42.2344C19.1671 42.2924 19.1588 42.3421 19.1504 42.4C19.1421 42.4497 19.1254 42.4994 19.1004 42.5491C19.0838 42.5988 19.0588 42.6485 19.0254 42.6982C18.9921 42.7396 18.9588 42.781 18.9254 42.8224C18.8838 42.8555 18.8421 42.8969 18.8004 42.9217C18.7504 42.9549 18.7004 42.9797 18.6504 42.9963C18.6004 43.0211 18.5504 43.0377 18.5004 43.046C18.4421 43.0542 18.3837 43.0625 18.3337 43.0625Z"/>
</mask>
<path d="M5.83267 36.4375C5.70767 36.4375 5.58017 36.4094 5.461 36.3506L0.460903 33.8662C0.128397 33.7006 -0.0541067 33.3362 0.014228 32.9727L5.01432 6.47274C5.09933 6.02307 5.53683 5.72495 5.98684 5.81107C6.43935 5.89554 6.73686 6.32865 6.65269 6.77749L1.76843 32.6638L6.20601 34.8691C6.61769 35.0736 6.78436 35.5713 6.57852 35.9804C6.43268 36.2711 6.13851 36.4384 5.83184 36.4384L5.83267 36.4375Z" fill="black"/>
<path d="M17.5004 13.2501C17.1579 13.2501 16.8371 13.0389 16.7154 12.7002L12.5486 1.1065C12.3936 0.675881 12.6195 0.202195 13.0528 0.0481639C13.4878 -0.105039 13.9628 0.119382 14.1178 0.549178L18.2846 12.1429C18.4396 12.5735 18.2137 13.0472 17.7804 13.2012C17.6879 13.2344 17.5929 13.2501 17.5004 13.2501Z" fill="black"/>
<path d="M16.1929 16.8938C15.927 16.8938 15.6654 16.768 15.5045 16.5328L10.1461 8.74842C9.99858 8.53477 9.96109 8.2648 10.0428 8.01885L12.5428 0.566569C12.6561 0.228695 12.9745 0.000132748 13.3336 0.000132748H17.5004C17.9604 0.000132748 18.3337 0.371132 18.3337 0.828256C18.3337 1.28538 17.9604 1.65638 17.5004 1.65638H13.9345L11.7553 8.153L16.8804 15.5978C17.1404 15.9755 17.0429 16.4905 16.6629 16.7489C16.5195 16.8466 16.3545 16.8938 16.1929 16.8938Z" fill="black"/>
<path d="M17.5004 53C1.66676 53 1.66676 51.2585 1.66676 50.5156C1.66676 50.4477 1.67509 50.3806 1.69176 50.3144L7.5002 27.2263V23.2497L5.00932 6.74851C4.95099 6.36177 5.17266 5.98746 5.541 5.84999L11.7661 3.53125C12.1986 3.37225 12.6778 3.58756 12.8395 4.0157C13.0011 4.44384 12.7828 4.92167 12.352 5.08232L6.75852 7.16588L9.15857 23.065C9.1644 23.1056 9.16774 23.147 9.16774 23.1876V27.3282C9.16774 27.3961 9.1594 27.4632 9.14274 27.5294L3.41846 50.2821C6.49435 51.7048 28.5073 51.7048 31.584 50.2821L25.8597 27.5294C25.8431 27.4632 25.8347 27.3961 25.8347 27.3282V23.1876C25.8347 23.1462 25.8381 23.1056 25.8439 23.065L28.2439 7.16588L22.6505 5.08232C22.2197 4.92167 22.0013 4.44384 22.163 4.0157C22.3238 3.58756 22.8055 3.36976 23.2363 3.53125L29.4615 5.84999C29.8298 5.98746 30.0515 6.36177 29.9931 6.74851L27.5023 23.2497V27.2263L33.3107 50.3144C33.3274 50.3806 33.3357 50.4477 33.3357 50.5156C33.3357 51.2585 33.3357 53 17.5021 53H17.5004Z" fill="black"/>
<path d="M29.1681 36.4375C28.8623 36.4375 28.5681 36.2703 28.4214 35.9796C28.2156 35.5705 28.3823 35.0728 28.7939 34.8682L33.2315 32.663L28.3473 6.77666C28.2623 6.32782 28.5606 5.89471 29.0131 5.81024C29.4656 5.72495 29.9006 6.02224 29.9856 6.47191L34.9857 32.9718C35.0541 33.3346 34.8724 33.6998 34.5391 33.8654L29.539 36.3498C29.419 36.4094 29.2923 36.4367 29.1673 36.4367L29.1681 36.4375Z" fill="black"/>
<path d="M13.3336 24.8438C13.2053 24.8438 13.0761 24.8148 12.9553 24.7536C12.582 24.5639 12.4078 24.1292 12.5486 23.7366L20.4846 1.65638H17.5004C17.0404 1.65638 16.667 1.28538 16.667 0.828256C16.667 0.371132 17.0404 0.000132748 17.5004 0.000132748H21.648C21.7213 0.000132748 21.7988 0.00675773 21.8738 0.0258046C21.918 0.0373983 21.9613 0.0523045 22.003 0.0705232C22.1522 0.135117 22.2738 0.23946 22.3597 0.366163C22.3913 0.412538 22.418 0.463053 22.4405 0.516053C22.448 0.5351 22.4555 0.554975 22.4622 0.57485L24.9597 8.01968C25.0422 8.26563 25.0039 8.5356 24.8564 8.74925L14.0228 24.4836C13.8628 24.7163 13.602 24.8446 13.3345 24.8446L13.3336 24.8438ZM21.6396 3.36562L16.287 18.2586L23.2455 8.15217L21.6396 3.36562Z" fill="black"/>
<path d="M26.6672 24.8438H8.33355C7.87355 24.8438 7.5002 24.4728 7.5002 24.0157C7.5002 23.5586 7.87355 23.1876 8.33355 23.1876H26.6672C27.1272 23.1876 27.5006 23.5586 27.5006 24.0157C27.5006 24.4728 27.1272 24.8438 26.6672 24.8438Z" fill="black"/>
<path d="M26.6672 28.1563H8.33355C7.87355 28.1563 7.5002 27.7853 7.5002 27.3282C7.5002 26.8711 7.87355 26.5001 8.33355 26.5001H26.6672C27.1272 26.5001 27.5006 26.8711 27.5006 27.3282C27.5006 27.7853 27.1272 28.1563 26.6672 28.1563Z" fill="black"/>
<path d="M14.8512 28.1563C14.3912 28.1563 14.0178 27.7853 14.0178 27.3282V24.0157C14.0178 23.5586 14.3912 23.1876 14.8512 23.1876C15.3112 23.1876 15.6845 23.5586 15.6845 24.0157V27.3282C15.6845 27.7853 15.3112 28.1563 14.8512 28.1563Z" fill="black"/>
<path d="M19.1671 28.1563C18.7071 28.1563 18.3337 27.7853 18.3337 27.3282V24.0157C18.3337 23.5586 18.7071 23.1876 19.1671 23.1876C19.6271 23.1876 20.0004 23.5586 20.0004 24.0157V27.3282C20.0004 27.7853 19.6271 28.1563 19.1671 28.1563Z" fill="black"/>
<path d="M17.5004 53C12.557 53 12.5003 28.3766 12.5003 27.3282C12.5003 26.8711 12.8736 26.5001 13.3337 26.5001C13.7937 26.5001 14.167 26.8711 14.167 27.3282C14.167 42.5383 16.322 50.9256 17.5287 51.3471C17.9887 51.3471 18.3479 51.7156 18.3479 52.1735C18.3479 52.6315 17.9604 53 17.5004 53Z" fill="black"/>
<path d="M16.667 32.2969C16.5587 32.2969 16.4504 32.2804 16.3504 32.2307C16.2504 32.1893 16.1587 32.1313 16.0754 32.0568C15.9254 31.8994 15.8337 31.6841 15.8337 31.4688C15.8337 31.2535 15.9254 31.0382 16.0754 30.8808C16.1587 30.8063 16.242 30.7483 16.3504 30.7069C16.5504 30.6241 16.7837 30.6241 16.9837 30.7069C17.0921 30.7483 17.1754 30.8063 17.2587 30.8808C17.4087 31.0382 17.5004 31.2535 17.5004 31.4688C17.5004 31.6841 17.4087 31.8994 17.2587 32.0568C17.1754 32.1313 17.0837 32.1893 16.9837 32.2307C16.8837 32.2804 16.7754 32.2969 16.667 32.2969Z" fill="black"/>
<path d="M17.5004 37.2657C17.2837 37.2657 17.0671 37.1746 16.9087 37.0255C16.7587 36.8682 16.667 36.6611 16.667 36.4375C16.667 36.2139 16.7587 36.0069 16.9087 35.8496C17.1421 35.6177 17.5087 35.5432 17.8171 35.6757C17.9171 35.7171 18.0087 35.775 18.0921 35.8496C18.2421 36.0069 18.3337 36.2222 18.3337 36.4375C18.3337 36.4955 18.3254 36.5452 18.3171 36.6032C18.3087 36.6529 18.2921 36.7025 18.2671 36.7522C18.2504 36.8019 18.2254 36.8516 18.1921 36.9013C18.1671 36.9427 18.1254 36.9841 18.0921 37.0255C18.0087 37.1 17.9171 37.158 17.8171 37.1994C17.7171 37.2408 17.6087 37.2657 17.5004 37.2657Z" fill="black"/>
<path d="M18.3337 43.0625C18.2254 43.0625 18.1171 43.0377 18.0171 42.9963C17.9171 42.9549 17.8254 42.8969 17.7421 42.8224C17.7087 42.781 17.6754 42.7396 17.6421 42.6982C17.6087 42.6485 17.5837 42.5988 17.5671 42.5491C17.5421 42.4994 17.5254 42.4497 17.5171 42.4C17.5087 42.3421 17.5004 42.2924 17.5004 42.2344C17.5004 42.1267 17.5254 42.0191 17.5671 41.9197C17.6087 41.8203 17.6671 41.7292 17.7421 41.6464C17.8254 41.5719 17.9171 41.5139 18.0171 41.4725C18.1671 41.4063 18.3337 41.3897 18.5004 41.4228C18.5504 41.4311 18.6004 41.4477 18.6504 41.4725C18.7004 41.4891 18.7504 41.5139 18.8004 41.5471C18.8421 41.5719 18.8838 41.6133 18.9254 41.6464C19.0004 41.7292 19.0588 41.8203 19.1004 41.9197C19.1421 42.0191 19.1671 42.1267 19.1671 42.2344C19.1671 42.2924 19.1588 42.3421 19.1504 42.4C19.1421 42.4497 19.1254 42.4994 19.1004 42.5491C19.0838 42.5988 19.0588 42.6485 19.0254 42.6982C18.9921 42.7396 18.9588 42.781 18.9254 42.8224C18.8838 42.8555 18.8421 42.8969 18.8004 42.9217C18.7504 42.9549 18.7004 42.9797 18.6504 42.9963C18.6004 43.0211 18.5504 43.0377 18.5004 43.046C18.4421 43.0542 18.3837 43.0625 18.3337 43.0625Z" fill="black"/>
<path d="M5.83267 36.4375L6.53693 37.1475L8.26066 35.4375H5.83267V36.4375ZM5.461 36.3506L5.01603 37.2461L5.01853 37.2474L5.461 36.3506ZM0.460903 33.8662L0.0150438 34.7613L0.0159373 34.7618L0.460903 33.8662ZM0.014228 32.9727L-0.968433 32.7873L-0.968561 32.7879L0.014228 32.9727ZM5.01432 6.47274L4.03172 6.287L4.03166 6.28733L5.01432 6.47274ZM5.98684 5.81107L5.79887 6.79326L5.80334 6.79409L5.98684 5.81107ZM6.65269 6.77749L7.63535 6.9629L7.63556 6.9618L6.65269 6.77749ZM1.76843 32.6638L0.785766 32.4784L0.64539 33.2224L1.3234 33.5593L1.76843 32.6638ZM6.20601 34.8691L5.76098 35.7646L5.76105 35.7646L6.20601 34.8691ZM6.57852 35.9804L5.68522 35.531L5.68471 35.532L6.57852 35.9804ZM5.83184 36.4384L5.12758 35.7284L3.40385 37.4384H5.83184V36.4384ZM16.7154 12.7002L17.6565 12.3622L17.6565 12.362L16.7154 12.7002ZM12.5486 1.1065L13.4897 0.768288L13.4895 0.767827L12.5486 1.1065ZM13.0528 0.0481639L12.7206 -0.895055L12.7179 -0.894082L13.0528 0.0481639ZM14.1178 0.549178L15.0589 0.210961L15.0585 0.209923L14.1178 0.549178ZM18.2846 12.1429L17.3435 12.4811L17.3437 12.4816L18.2846 12.1429ZM17.7804 13.2012L17.4455 12.259L17.4433 12.2598L17.7804 13.2012ZM15.5045 16.5328L16.33 15.9683L16.3282 15.9658L15.5045 16.5328ZM10.1461 8.74842L10.9698 8.18141L10.969 8.18029L10.1461 8.74842ZM10.0428 8.01885L9.09468 7.70079L9.09371 7.70372L10.0428 8.01885ZM12.5428 0.566569L13.4909 0.884623L13.4909 0.884591L12.5428 0.566569ZM13.9345 1.65638V0.656379H13.2152L12.9864 1.33836L13.9345 1.65638ZM11.7553 8.153L10.8072 7.83498L10.6483 8.30858L10.9316 8.72004L11.7553 8.153ZM16.8804 15.5978L16.0567 16.1649L16.0567 16.1649L16.8804 15.5978ZM16.6629 16.7489L16.1006 15.922L16.0996 15.9227L16.6629 16.7489ZM1.69176 50.3144L2.66154 50.5584L1.69176 50.3144ZM7.5002 27.2263L8.46999 27.4703L8.5002 27.3502V27.2263H7.5002ZM7.5002 23.2497H8.5002V23.1746L8.489 23.1004L7.5002 23.2497ZM5.00932 6.74851L4.02051 6.89766L4.02053 6.89777L5.00932 6.74851ZM5.541 5.84999L5.19195 4.91289L5.19135 4.91311L5.541 5.84999ZM11.7661 3.53125L11.4211 2.59265L11.4171 2.59415L11.7661 3.53125ZM12.352 5.08232L12.701 6.01942L12.7014 6.0193L12.352 5.08232ZM6.75852 7.16588L6.40946 6.22878L5.64852 6.51223L5.76973 7.31514L6.75852 7.16588ZM9.15857 23.065L10.1484 22.9227L10.1474 22.9157L9.15857 23.065ZM9.14274 27.5294L10.1125 27.7734L10.1125 27.7734L9.14274 27.5294ZM3.41846 50.2821L2.44868 50.0381L2.24648 50.8418L2.99865 51.1897L3.41846 50.2821ZM31.584 50.2821L32.0037 51.1898L32.756 50.8419L32.5538 50.0381L31.584 50.2821ZM25.8597 27.5294L24.8899 27.7734L24.8899 27.7734L25.8597 27.5294ZM25.8439 23.065L24.8551 22.9157L24.8541 22.9227L25.8439 23.065ZM28.2439 7.16588L29.2327 7.31514L29.3539 6.51223L28.593 6.22878L28.2439 7.16588ZM22.6505 5.08232L22.3011 6.0193L22.3014 6.01942L22.6505 5.08232ZM22.163 4.0157L23.0985 4.36896L23.0991 4.36737L22.163 4.0157ZM23.2363 3.53125L22.8854 4.46764L22.8873 4.46835L23.2363 3.53125ZM29.4615 5.84999L29.8111 4.91311L29.8105 4.91289L29.4615 5.84999ZM29.9931 6.74851L30.9819 6.89777L30.9819 6.89766L29.9931 6.74851ZM27.5023 23.2497L26.5135 23.1004L26.5023 23.1746V23.2497H27.5023ZM27.5023 27.2263H26.5023V27.3502L26.5325 27.4703L27.5023 27.2263ZM33.3107 50.3144L34.2805 50.0704L33.3107 50.3144ZM29.1681 36.4375V37.4375H31.5902L29.8736 35.7288L29.1681 36.4375ZM28.4214 35.9796L27.5281 36.4291L27.5287 36.4301L28.4214 35.9796ZM28.7939 34.8682L29.2389 35.7638L29.239 35.7638L28.7939 34.8682ZM33.2315 32.663L33.6766 33.5585L34.3546 33.2215L34.2142 32.4775L33.2315 32.663ZM28.3473 6.77666L29.3299 6.59125L29.3298 6.59059L28.3473 6.77666ZM29.0131 5.81024L29.1966 6.79326L29.1984 6.79294L29.0131 5.81024ZM29.9856 6.47191L30.9683 6.2865L30.9682 6.28617L29.9856 6.47191ZM34.9857 32.9718L35.9684 32.7867L35.9684 32.7864L34.9857 32.9718ZM34.5391 33.8654L34.0941 32.9698L34.5391 33.8654ZM29.539 36.3498L29.9839 37.2453L29.539 36.3498ZM29.1673 36.4367V35.4367H26.7452L28.4618 37.1454L29.1673 36.4367ZM13.3336 24.8438L14.0383 24.1343L13.7458 23.8438H13.3336V24.8438ZM12.9553 24.7536L12.5024 25.6451L12.503 25.6454L12.9553 24.7536ZM12.5486 23.7366L11.6076 23.3984L11.6074 23.3989L12.5486 23.7366ZM20.4846 1.65638L21.4257 1.99461L21.9067 0.656379H20.4846V1.65638ZM21.8738 0.0258046L22.1277 -0.941459L22.12 -0.94343L21.8738 0.0258046ZM22.003 0.0705232L21.6024 0.986774L21.6056 0.988183L22.003 0.0705232ZM22.3597 0.366163L21.5317 0.927033L21.5338 0.930084L22.3597 0.366163ZM22.4405 0.516053L23.371 0.149662L23.3661 0.137402L23.361 0.125273L22.4405 0.516053ZM22.4622 0.57485L21.5141 0.892872L21.5141 0.892904L22.4622 0.57485ZM24.9597 8.01968L25.9078 7.70165L25.9078 7.70162L24.9597 8.01968ZM24.8564 8.74925L24.0334 8.18112L24.0327 8.18215L24.8564 8.74925ZM14.0228 24.4836L13.1992 23.9165L13.1988 23.917L14.0228 24.4836ZM13.3345 24.8446L12.6298 25.5542L12.9223 25.8446H13.3345V24.8446ZM21.6396 3.36562L22.5877 3.04755L21.6721 0.318563L20.6986 3.0274L21.6396 3.36562ZM16.287 18.2586L15.346 17.9204L17.1107 18.8257L16.287 18.2586ZM23.2455 8.15217L24.0692 8.71927L24.3525 8.30777L24.1936 7.8341L23.2455 8.15217ZM17.5287 51.3471L17.199 52.2911L17.3591 52.3471H17.5287V51.3471ZM16.3504 32.2307L16.7953 31.3351L16.7646 31.3199L16.7329 31.3067L16.3504 32.2307ZM16.0754 32.0568L15.3516 32.7468L15.3791 32.7756L15.4087 32.8022L16.0754 32.0568ZM16.0754 30.8808L15.4087 30.1355L15.3791 30.162L15.3516 30.1908L16.0754 30.8808ZM16.3504 30.7069L16.7074 31.641L16.7202 31.6361L16.7329 31.6309L16.3504 30.7069ZM16.9837 30.7069L16.6012 31.6309L16.6139 31.6361L16.6267 31.641L16.9837 30.7069ZM17.2587 30.8808L17.9825 30.1908L17.955 30.162L17.9254 30.1355L17.2587 30.8808ZM17.2587 32.0568L17.9254 32.8022L17.955 32.7756L17.9825 32.7468L17.2587 32.0568ZM16.9837 32.2307L16.6012 31.3067L16.5695 31.3199L16.5388 31.3351L16.9837 32.2307ZM16.9087 37.0255L16.1849 37.7155L16.2036 37.7351L16.2233 37.7536L16.9087 37.0255ZM16.9087 35.8496L16.2038 35.1402L16.1943 35.1498L16.1849 35.1596L16.9087 35.8496ZM17.8171 35.6757L17.4222 36.5945L17.4345 36.5996L17.8171 35.6757ZM18.0921 35.8496L18.8159 35.1596L18.7884 35.1307L18.7587 35.1042L18.0921 35.8496ZM18.3171 36.6032L19.3033 36.7686L19.3052 36.757L19.3069 36.7455L18.3171 36.6032ZM18.2671 36.7522L17.3738 36.3028L17.3417 36.3665L17.319 36.4342L18.2671 36.7522ZM18.1921 36.9013L17.3616 36.3442L17.3484 36.364L17.336 36.3844L18.1921 36.9013ZM18.0921 37.0255L18.7587 37.7709L18.8197 37.7163L18.871 37.6526L18.0921 37.0255ZM17.7421 42.8224L16.9631 43.4495L17.0144 43.5132L17.0754 43.5678L17.7421 42.8224ZM17.6421 42.6982L16.8116 43.2553L16.8359 43.2914L16.8631 43.3252L17.6421 42.6982ZM17.5671 42.5491L18.5152 42.2311L18.4924 42.1634L18.4604 42.0996L17.5671 42.5491ZM17.5171 42.4L16.5272 42.5423L16.5289 42.5539L16.5308 42.5654L17.5171 42.4ZM17.7421 41.6464L17.0754 40.9011L17.0362 40.9361L17.0009 40.9751L17.7421 41.6464ZM18.0171 41.4725L18.3996 42.3965L18.4104 42.392L18.4211 42.3873L18.0171 41.4725ZM18.5004 41.4228L18.3055 42.4037L18.3212 42.4068L18.337 42.4094L18.5004 41.4228ZM18.6504 41.4725L18.2055 42.3681L18.2688 42.3996L18.336 42.4218L18.6504 41.4725ZM18.8004 41.5471L18.2481 42.3807L18.2679 42.3938L18.2883 42.406L18.8004 41.5471ZM18.9254 41.6464L19.6666 40.9751L19.6117 40.9145L19.5477 40.8637L18.9254 41.6464ZM19.1504 42.4L20.1367 42.5654L20.1386 42.5539L20.1403 42.5423L19.1504 42.4ZM19.1004 42.5491L18.2071 42.0996L18.175 42.1634L18.1523 42.2311L19.1004 42.5491ZM19.0254 42.6982L19.8044 43.3252L19.8316 43.2914L19.8559 43.2553L19.0254 42.6982ZM18.9254 42.8224L19.5477 43.6051L19.6347 43.536L19.7044 43.4495L18.9254 42.8224ZM18.8004 42.9217L18.2883 42.0628L18.2679 42.075L18.2481 42.0881L18.8004 42.9217ZM18.6504 42.9963L18.336 42.047L18.2688 42.0692L18.2055 42.1007L18.6504 42.9963ZM18.5004 43.046L18.641 44.036L18.6524 44.0344L18.6638 44.0325L18.5004 43.046ZM5.83267 35.4375C5.85763 35.4375 5.88191 35.4432 5.90346 35.4538L5.01853 37.2474C5.27842 37.3756 5.55771 37.4375 5.83267 37.4375V35.4375ZM5.90596 35.455L0.905869 32.9707L0.0159373 34.7618L5.01603 37.2461L5.90596 35.455ZM0.906763 32.9711C0.971023 33.0031 1.01202 33.0776 0.997017 33.1574L-0.968561 32.7879C-1.12024 33.5949 -0.714229 34.3981 0.015044 34.7613L0.906763 32.9711ZM0.996889 33.1581L5.99698 6.65815L4.03166 6.28733L-0.968433 32.7873L0.996889 33.1581ZM5.99692 6.65848C5.97925 6.75196 5.89257 6.81118 5.79887 6.79325L6.17482 4.8289C5.1811 4.63872 4.2194 5.29418 4.03172 6.287L5.99692 6.65848ZM5.80334 6.79409C5.71711 6.778 5.6513 6.69195 5.66982 6.59318L7.63556 6.9618C7.82241 5.96534 7.16159 5.01308 6.17034 4.82805L5.80334 6.79409ZM5.67003 6.59208L0.785766 32.4784L2.75109 32.8492L7.63535 6.9629L5.67003 6.59208ZM1.3234 33.5593L5.76098 35.7646L6.65105 33.9736L2.21346 31.7683L1.3234 33.5593ZM5.76105 35.7646C5.67905 35.7239 5.6406 35.6196 5.68522 35.531L7.47182 36.4299C7.92812 35.523 7.55633 34.4234 6.65098 33.9735L5.76105 35.7646ZM5.68471 35.532C5.71683 35.468 5.77915 35.4384 5.83184 35.4384V37.4384C6.49787 37.4384 7.14854 37.0742 7.47233 36.4289L5.68471 35.532ZM6.5361 37.1483L6.53693 37.1475L5.12841 35.7276L5.12758 35.7284L6.5361 37.1483ZM17.5004 12.2501C17.5631 12.2501 17.6299 12.2882 17.6565 12.3622L15.7743 13.0383C16.0442 13.7896 16.7527 14.2501 17.5004 14.2501V12.2501ZM17.6565 12.362L13.4897 0.768288L11.6076 1.44472L15.7743 13.0384L17.6565 12.362ZM13.4895 0.767827C13.5239 0.863271 13.4713 0.960716 13.3877 0.99041L12.7179 -0.894082C11.7677 -0.556326 11.2634 0.488492 11.6077 1.44518L13.4895 0.767827ZM13.385 0.991378C13.3068 1.01891 13.2103 0.980359 13.1771 0.888433L15.0585 0.209923C14.7154 -0.741594 13.6688 -1.22899 12.7206 -0.895051L13.385 0.991378ZM13.1768 0.887395L17.3435 12.4811L19.2256 11.8047L15.0589 0.210961L13.1768 0.887395ZM17.3437 12.4816C17.3093 12.3861 17.3619 12.2887 17.4455 12.259L18.1153 14.1435C19.0655 13.8057 19.5698 12.7609 19.2255 11.8042L17.3437 12.4816ZM17.4433 12.2598C17.4607 12.2536 17.4798 12.2501 17.5004 12.2501V14.2501C17.706 14.2501 17.9151 14.2152 18.1175 14.1427L17.4433 12.2598ZM16.1929 15.8938C16.2391 15.8938 16.2944 15.9164 16.33 15.9683L14.6791 17.0973C15.0363 17.6196 15.6149 17.8938 16.1929 17.8938V15.8938ZM16.3282 15.9658L10.9698 8.18141L9.32238 9.31543L14.6808 17.0998L16.3282 15.9658ZM10.969 8.18029C11.0014 8.2272 11.0082 8.28465 10.9918 8.33398L9.09371 7.70372C8.91399 8.24495 8.99576 8.84233 9.32315 9.31656L10.969 8.18029ZM10.9908 8.3369L13.4909 0.884623L11.5947 0.248515L9.09468 7.70079L10.9908 8.3369ZM13.4909 0.884591C13.4667 0.956791 13.4014 1.00013 13.3336 1.00013V-0.999867C12.5475 -0.999867 11.8456 -0.499402 11.5947 0.248547L13.4909 0.884591ZM13.3336 1.00013H17.5004V-0.999867H13.3336V1.00013ZM17.5004 1.00013C17.4141 1.00013 17.3337 0.929339 17.3337 0.828256H19.3337C19.3337 -0.187075 18.5067 -0.999867 17.5004 -0.999867V1.00013ZM17.3337 0.828256C17.3337 0.727173 17.4141 0.656379 17.5004 0.656379V2.65638C18.5067 2.65638 19.3337 1.84359 19.3337 0.828256H17.3337ZM17.5004 0.656379H13.9345V2.65638H17.5004V0.656379ZM12.9864 1.33836L10.8072 7.83498L12.7034 8.47102L14.8826 1.9744L12.9864 1.33836ZM10.9316 8.72004L16.0567 16.1649L17.7041 15.0308L12.579 7.58596L10.9316 8.72004ZM16.0567 16.1649C16.0006 16.0834 16.0244 15.9738 16.1006 15.922L17.2251 17.5759C18.0614 17.0073 18.2802 15.8675 17.704 15.0307L16.0567 16.1649ZM16.0996 15.9227C16.1285 15.903 16.1612 15.8938 16.1929 15.8938V17.8938C16.5479 17.8938 16.9106 17.7903 17.2262 17.5752L16.0996 15.9227ZM17.5004 52C9.58683 52 5.74476 51.5615 3.90383 51.0702C2.97233 50.8216 2.70157 50.5958 2.6486 50.5385C2.63773 50.5268 2.65527 50.5447 2.66539 50.5836C2.67061 50.6036 2.66676 50.6139 2.66676 50.5156H0.66676C0.66676 50.7587 0.664365 51.3382 1.17972 51.8959C1.62156 52.374 2.34039 52.7229 3.3881 53.0026C5.50558 53.5677 9.58033 54 17.5004 54V52ZM2.66676 50.5156C2.66676 50.5305 2.66482 50.5453 2.66154 50.5584L0.721979 50.0704C0.685364 50.216 0.66676 50.365 0.66676 50.5156H2.66676ZM2.66154 50.5584L8.46999 27.4703L6.53042 26.9824L0.721979 50.0704L2.66154 50.5584ZM8.5002 27.2263V23.2497H6.5002V27.2263H8.5002ZM8.489 23.1004L5.99812 6.59925L4.02053 6.89777L6.51141 23.3989L8.489 23.1004ZM5.99814 6.59935C6.01097 6.68442 5.96136 6.76048 5.89065 6.78687L5.19135 4.91311C4.38396 5.21444 3.89101 6.03912 4.02051 6.89766L5.99814 6.59935ZM5.89005 6.7871L12.1152 4.46835L11.4171 2.59415L5.19195 4.91289L5.89005 6.7871ZM12.1112 4.46983C12.0378 4.49679 11.9397 4.46353 11.9039 4.36896L13.775 3.66244C13.4159 2.71159 12.3594 2.2477 11.4211 2.59266L12.1112 4.46983ZM11.9039 4.36896C11.8684 4.27491 11.9184 4.17672 12.0026 4.14535L12.7014 6.0193C13.6472 5.66662 14.1339 4.61277 13.775 3.66244L11.9039 4.36896ZM12.0029 4.14523L6.40946 6.22878L7.10759 8.10298L12.701 6.01942L12.0029 4.14523ZM5.76973 7.31514L8.16977 23.2143L10.1474 22.9157L7.74732 7.01662L5.76973 7.31514ZM8.16875 23.2073C8.16868 23.2068 8.16845 23.2052 8.16823 23.2023C8.16801 23.1994 8.16774 23.1945 8.16774 23.1876H10.1677C10.1677 23.0933 10.1601 23.004 10.1484 22.9227L8.16875 23.2073ZM8.16774 23.1876V27.3282H10.1677V23.1876H8.16774ZM8.16774 27.3282C8.16774 27.3133 8.16967 27.2985 8.17295 27.2854L10.1125 27.7734C10.1491 27.6278 10.1677 27.4788 10.1677 27.3282H8.16774ZM8.17296 27.2854L2.44868 50.0381L4.38824 50.5261L10.1125 27.7734L8.17296 27.2854ZM2.99865 51.1897C3.52737 51.4343 4.33729 51.6048 5.23939 51.7382C6.17662 51.8767 7.3287 51.9901 8.61458 52.0799C11.1885 52.2598 14.3489 52.3491 17.5009 52.3491C20.653 52.3491 23.8134 52.2598 26.3874 52.0799C27.6733 51.9901 28.8255 51.8767 29.7628 51.7382C30.665 51.6048 31.4749 51.4343 32.0037 51.1898L31.1643 49.3744C30.9239 49.4856 30.3729 49.6263 29.4703 49.7597C28.6029 49.8879 27.5065 49.9968 26.248 50.0848C23.7331 50.2606 20.6212 50.3491 17.5009 50.3491C14.3807 50.3491 11.2688 50.2606 8.75403 50.0848C7.49557 49.9968 6.39921 49.8879 5.53186 49.7597C4.62936 49.6263 4.07853 49.4856 3.83827 49.3745L2.99865 51.1897ZM32.5538 50.0381L26.8295 27.2854L24.8899 27.7734L30.6142 50.5261L32.5538 50.0381ZM26.8295 27.2854C26.8328 27.2985 26.8347 27.3133 26.8347 27.3282H24.8347C24.8347 27.4788 24.8533 27.6278 24.8899 27.7734L26.8295 27.2854ZM26.8347 27.3282V23.1876H24.8347V27.3282H26.8347ZM26.8347 23.1876C26.8347 23.2004 26.8337 23.2078 26.8337 23.2073L24.8541 22.9227C24.8425 23.0034 24.8347 23.092 24.8347 23.1876H26.8347ZM26.8327 23.2143L29.2327 7.31514L27.2551 7.01662L24.8551 22.9157L26.8327 23.2143ZM28.593 6.22878L22.9996 4.14523L22.3014 6.01942L27.8949 8.10298L28.593 6.22878ZM22.9999 4.14535C23.084 4.17672 23.134 4.27491 23.0985 4.36896L21.2275 3.66244C20.8686 4.61277 21.3553 5.66662 22.3011 6.0193L22.9999 4.14535ZM23.0991 4.36737C23.0643 4.45991 22.9675 4.4984 22.8854 4.46764L23.5873 2.59486C22.6435 2.24113 21.5833 2.71522 21.2269 3.66403L23.0991 4.36737ZM22.8873 4.46835L29.1124 6.7871L29.8105 4.91289L23.5854 2.59415L22.8873 4.46835ZM29.1118 6.78687C29.0411 6.76048 28.9915 6.68442 29.0043 6.59935L30.9819 6.89766C31.1115 6.03912 30.6185 5.21444 29.8111 4.91311L29.1118 6.78687ZM29.0043 6.59925L26.5135 23.1004L28.4911 23.3989L30.9819 6.89777L29.0043 6.59925ZM26.5023 23.2497V27.2263H28.5023V23.2497H26.5023ZM26.5325 27.4703L32.3409 50.5584L34.2805 50.0704L28.472 26.9824L26.5325 27.4703ZM32.3409 50.5584C32.3376 50.5453 32.3357 50.5305 32.3357 50.5156H34.3357C34.3357 50.365 34.3171 50.216 34.2805 50.0704L32.3409 50.5584ZM32.3357 50.5156C32.3357 50.6139 32.3318 50.6036 32.3371 50.5836C32.3472 50.5447 32.3647 50.5268 32.3539 50.5385C32.3009 50.5958 32.0301 50.8216 31.0986 51.0702C29.2577 51.5615 25.4156 52 17.5021 52V54C25.4221 54 29.4969 53.5677 31.6144 53.0026C32.6621 52.7229 33.3809 52.374 33.8227 51.8959C34.3381 51.3382 34.3357 50.7587 34.3357 50.5156H32.3357ZM17.5021 52H17.5004V54H17.5021V52ZM29.1681 35.4375C29.2227 35.4375 29.2833 35.4678 29.3142 35.5291L27.5287 36.4301C27.8529 37.0727 28.5019 37.4375 29.1681 37.4375V35.4375ZM29.3147 35.5301C29.3594 35.6188 29.3209 35.7231 29.2389 35.7638L28.349 33.9727C27.4436 34.4225 27.0718 35.5222 27.5281 36.4291L29.3147 35.5301ZM29.239 35.7638L33.6766 33.5585L32.7865 31.7674L28.3489 33.9727L29.239 35.7638ZM34.2142 32.4775L29.3299 6.59125L27.3646 6.96207L32.2489 32.8484L34.2142 32.4775ZM29.3298 6.59059C29.3491 6.69227 29.2811 6.77749 29.1966 6.79326L28.8296 4.82722C27.8401 5.01193 27.1755 5.96337 27.3647 6.96273L29.3298 6.59059ZM29.1984 6.79294C29.1097 6.80964 29.0208 6.75186 29.003 6.65765L30.9682 6.28617C30.7804 5.29263 29.8215 4.64025 28.8279 4.82755L29.1984 6.79294ZM29.003 6.65733L34.0031 33.1573L35.9684 32.7864L30.9683 6.2865L29.003 6.65733ZM34.003 33.157C33.9881 33.0776 34.0284 33.0025 34.0941 32.9698L34.984 34.7609C35.7164 34.397 36.1201 33.5915 35.9684 32.7867L34.003 33.157ZM34.0941 32.9698L29.094 35.4542L29.9839 37.2453L34.984 34.7609L34.0941 32.9698ZM29.094 35.4542C29.1185 35.442 29.145 35.4367 29.1673 35.4367V37.4367C29.4396 37.4367 29.7194 37.3767 29.9839 37.2453L29.094 35.4542ZM28.4618 37.1454L28.4626 37.1463L29.8736 35.7288L29.8728 35.728L28.4618 37.1454ZM13.3336 23.8438C13.3571 23.8438 13.3836 23.8495 13.4076 23.8617L12.503 25.6454C12.7687 25.7802 13.0535 25.8438 13.3336 25.8438V23.8438ZM13.4082 23.862C13.4802 23.8986 13.5207 23.9885 13.4899 24.0743L11.6074 23.3989C11.2949 24.2698 11.6837 25.2293 12.5024 25.6451L13.4082 23.862ZM13.4897 24.0749L21.4257 1.99461L19.5436 1.31815L11.6076 23.3984L13.4897 24.0749ZM20.4846 0.656379H17.5004V2.65638H20.4846V0.656379ZM17.5004 0.656379C17.5867 0.656379 17.667 0.727173 17.667 0.828256H15.667C15.667 1.84359 16.494 2.65638 17.5004 2.65638V0.656379ZM17.667 0.828256C17.667 0.929339 17.5867 1.00013 17.5004 1.00013V-0.999867C16.494 -0.999867 15.667 -0.187075 15.667 0.828256H17.667ZM17.5004 1.00013H21.648V-0.999867H17.5004V1.00013ZM21.648 1.00013C21.6549 1.00013 21.6569 1.00047 21.6544 1.00021C21.652 0.99995 21.6426 0.998831 21.6277 0.995039L22.12 -0.94343C21.9424 -0.98851 21.778 -0.999867 21.648 -0.999867V1.00013ZM21.6199 0.993037C21.6161 0.992032 21.6102 0.9902 21.6024 0.986768L22.4036 -0.845721C22.3124 -0.885591 22.2199 -0.917235 22.1277 -0.941428L21.6199 0.993037ZM21.6056 0.988183C21.5747 0.974788 21.5491 0.952666 21.5317 0.927029L23.1876 -0.194703C22.9985 -0.473745 22.7296 -0.704555 22.4003 -0.847137L21.6056 0.988183ZM21.5338 0.930084C21.5226 0.913573 21.5189 0.904342 21.52 0.906833L23.361 0.125273C23.317 0.0217647 23.2601 -0.0884974 23.1855 -0.197758L21.5338 0.930084ZM21.51 0.882445C21.512 0.887472 21.5132 0.890733 21.514 0.892734C21.5147 0.894748 21.5147 0.894665 21.5141 0.892872L23.4102 0.256828C23.396 0.214353 23.3817 0.176946 23.371 0.149662L21.51 0.882445ZM21.5141 0.892904L24.0116 8.33773L25.9078 7.70162L23.4102 0.256796L21.5141 0.892904ZM24.0116 8.3377C23.9937 8.28433 24.0024 8.22604 24.0334 8.18112L25.6793 9.31739C26.0053 8.84515 26.0907 8.24692 25.9078 7.70165L24.0116 8.3377ZM24.0327 8.18215L13.1992 23.9165L14.8465 25.0507L25.68 9.31636L24.0327 8.18215ZM13.1988 23.917C13.2323 23.8683 13.2851 23.8446 13.3345 23.8446V25.8446C13.9189 25.8446 14.4934 25.5642 14.8468 25.0502L13.1988 23.917ZM14.0391 24.1351L14.0383 24.1343L12.629 25.5534L12.6298 25.5542L14.0391 24.1351ZM20.6986 3.0274L15.346 17.9204L17.2281 18.5968L22.5807 3.70385L20.6986 3.0274ZM17.1107 18.8257L24.0692 8.71927L22.4219 7.58508L15.4634 17.6915L17.1107 18.8257ZM24.1936 7.8341L22.5877 3.04755L20.6916 3.6837L22.2974 8.47025L24.1936 7.8341ZM26.6672 23.8438H8.33355V25.8438H26.6672V23.8438ZM8.33355 23.8438C8.41989 23.8438 8.5002 23.9146 8.5002 24.0157H6.5002C6.5002 25.031 7.3272 25.8438 8.33355 25.8438V23.8438ZM8.5002 24.0157C8.5002 24.1168 8.41989 24.1876 8.33355 24.1876V22.1876C7.3272 22.1876 6.5002 23.0004 6.5002 24.0157H8.5002ZM8.33355 24.1876H26.6672V22.1876H8.33355V24.1876ZM26.6672 24.1876C26.5809 24.1876 26.5006 24.1168 26.5006 24.0157H28.5006C28.5006 23.0004 27.6736 22.1876 26.6672 22.1876V24.1876ZM26.5006 24.0157C26.5006 23.9146 26.5809 23.8438 26.6672 23.8438V25.8438C27.6736 25.8438 28.5006 25.031 28.5006 24.0157H26.5006ZM26.6672 27.1563H8.33355V29.1563H26.6672V27.1563ZM8.33355 27.1563C8.41989 27.1563 8.5002 27.2271 8.5002 27.3282H6.5002C6.5002 28.3435 7.3272 29.1563 8.33355 29.1563V27.1563ZM8.5002 27.3282C8.5002 27.4293 8.41989 27.5001 8.33355 27.5001V25.5001C7.3272 25.5001 6.5002 26.3129 6.5002 27.3282H8.5002ZM8.33355 27.5001H26.6672V25.5001H8.33355V27.5001ZM26.6672 27.5001C26.5809 27.5001 26.5006 27.4293 26.5006 27.3282H28.5006C28.5006 26.3129 27.6736 25.5001 26.6672 25.5001V27.5001ZM26.5006 27.3282C26.5006 27.2271 26.5809 27.1563 26.6672 27.1563V29.1563C27.6736 29.1563 28.5006 28.3435 28.5006 27.3282H26.5006ZM14.8512 27.1563C14.9375 27.1563 15.0178 27.2271 15.0178 27.3282H13.0178C13.0178 28.3435 13.8448 29.1563 14.8512 29.1563V27.1563ZM15.0178 27.3282V24.0157H13.0178V27.3282H15.0178ZM15.0178 24.0157C15.0178 24.1168 14.9375 24.1876 14.8512 24.1876V22.1876C13.8448 22.1876 13.0178 23.0004 13.0178 24.0157H15.0178ZM14.8512 24.1876C14.7648 24.1876 14.6845 24.1168 14.6845 24.0157H16.6845C16.6845 23.0004 15.8575 22.1876 14.8512 22.1876V24.1876ZM14.6845 24.0157V27.3282H16.6845V24.0157H14.6845ZM14.6845 27.3282C14.6845 27.2271 14.7648 27.1563 14.8512 27.1563V29.1563C15.8575 29.1563 16.6845 28.3435 16.6845 27.3282H14.6845ZM19.1671 27.1563C19.2534 27.1563 19.3337 27.2271 19.3337 27.3282H17.3337C17.3337 28.3435 18.1607 29.1563 19.1671 29.1563V27.1563ZM19.3337 27.3282V24.0157H17.3337V27.3282H19.3337ZM19.3337 24.0157C19.3337 24.1168 19.2534 24.1876 19.1671 24.1876V22.1876C18.1607 22.1876 17.3337 23.0004 17.3337 24.0157H19.3337ZM19.1671 24.1876C19.0808 24.1876 19.0004 24.1168 19.0004 24.0157H21.0004C21.0004 23.0004 20.1734 22.1876 19.1671 22.1876V24.1876ZM19.0004 24.0157V27.3282H21.0004V24.0157H19.0004ZM19.0004 27.3282C19.0004 27.2271 19.0808 27.1563 19.1671 27.1563V29.1563C20.1734 29.1563 21.0004 28.3435 21.0004 27.3282H19.0004ZM17.5004 52C17.3522 52 17.0737 51.9188 16.6844 51.3649C16.2997 50.8175 15.9291 49.9695 15.5911 48.8477C14.9191 46.6173 14.4559 43.5839 14.1415 40.4572C13.5146 34.2219 13.5003 27.8446 13.5003 27.3282H11.5003C11.5003 27.8601 11.5143 34.3188 12.1516 40.6573C12.4693 43.8175 12.9472 47.0055 13.6761 49.4247C14.0386 50.6278 14.4835 51.7116 15.0481 52.5149C15.6081 53.3117 16.4128 54 17.5004 54V52ZM13.5003 27.3282C13.5003 27.4293 13.42 27.5001 13.3337 27.5001V25.5001C12.3273 25.5001 11.5003 26.3129 11.5003 27.3282H13.5003ZM13.3337 27.5001C13.2473 27.5001 13.167 27.4293 13.167 27.3282H15.167C15.167 26.3129 14.34 25.5001 13.3337 25.5001V27.5001ZM13.167 27.3282C13.167 34.9766 13.7086 40.9336 14.4095 45.0512C14.7594 47.1061 15.1529 48.7269 15.5485 49.8798C15.7452 50.453 15.9532 50.9427 16.1738 51.3212C16.2841 51.5106 16.4113 51.6962 16.5597 51.8558C16.7014 52.0083 16.9119 52.1909 17.199 52.2911L17.8585 50.403C17.9947 50.4506 18.0469 50.5182 18.0246 50.4942C18.0088 50.4772 17.966 50.4244 17.9019 50.3145C17.7736 50.0942 17.6153 49.7407 17.4402 49.2306C17.0924 48.217 16.7209 46.7113 16.3812 44.7155C15.703 40.7316 15.167 34.8899 15.167 27.3282H13.167ZM17.5287 52.3471C17.4842 52.3471 17.4345 52.3269 17.3988 52.2907C17.364 52.2555 17.3479 52.2108 17.3479 52.1735H19.3479C19.3479 51.1765 18.5542 50.3471 17.5287 50.3471V52.3471ZM17.3479 52.1735C17.3479 52.1125 17.3751 52.0652 17.4013 52.0398C17.4261 52.0159 17.4608 52 17.5004 52V54C18.4814 54 19.3479 53.2146 19.3479 52.1735H17.3479ZM16.667 31.2969C16.6567 31.2969 16.7141 31.2948 16.7953 31.3351L15.9054 33.1262C16.1866 33.266 16.4608 33.2969 16.667 33.2969V31.2969ZM16.7329 31.3067C16.7358 31.3079 16.7387 31.3095 16.7411 31.311C16.7434 31.3124 16.7437 31.3129 16.742 31.3114L15.4087 32.8022C15.5732 32.9493 15.7603 33.0687 15.9678 33.1546L16.7329 31.3067ZM16.7992 31.3667C16.8101 31.3782 16.817 31.3893 16.8219 31.4012C16.8269 31.4132 16.8337 31.4354 16.8337 31.4688H14.8337C14.8337 31.9589 15.037 32.4168 15.3516 32.7468L16.7992 31.3667ZM16.8337 31.4688C16.8337 31.5022 16.8269 31.5244 16.8219 31.5364C16.817 31.5483 16.8101 31.5594 16.7992 31.5709L15.3516 30.1908C15.037 30.5208 14.8337 30.9787 14.8337 31.4688H16.8337ZM16.742 31.6262C16.7564 31.6134 16.7566 31.6147 16.7468 31.621C16.7418 31.6242 16.7354 31.628 16.7278 31.6319C16.7203 31.6357 16.7133 31.6388 16.7074 31.641L15.9934 29.7728C15.7396 29.8698 15.5537 30.0058 15.4087 30.1355L16.742 31.6262ZM16.7329 31.6309C16.7069 31.6417 16.6847 31.6448 16.667 31.6448C16.6494 31.6448 16.6272 31.6417 16.6012 31.6309L17.3663 29.783C16.9213 29.5988 16.4128 29.5988 15.9678 29.783L16.7329 31.6309ZM16.6267 31.641C16.6208 31.6388 16.6138 31.6357 16.6062 31.6319C16.5987 31.628 16.5923 31.6242 16.5873 31.621C16.5775 31.6147 16.5777 31.6134 16.5921 31.6262L17.9254 30.1355C17.7804 30.0058 17.5945 29.8698 17.3407 29.7728L16.6267 31.641ZM16.5349 31.5709C16.524 31.5594 16.5171 31.5483 16.5122 31.5364C16.5072 31.5244 16.5004 31.5022 16.5004 31.4688H18.5004C18.5004 30.9787 18.2971 30.5208 17.9825 30.1908L16.5349 31.5709ZM16.5004 31.4688C16.5004 31.4354 16.5072 31.4132 16.5122 31.4012C16.5171 31.3893 16.524 31.3782 16.5349 31.3667L17.9825 32.7468C18.2971 32.4168 18.5004 31.9589 18.5004 31.4688H16.5004ZM16.5921 31.3114C16.5904 31.3129 16.5907 31.3124 16.593 31.311C16.5954 31.3095 16.5983 31.3079 16.6012 31.3067L17.3663 33.1546C17.5738 33.0687 17.7609 32.9493 17.9254 32.8022L16.5921 31.3114ZM16.5388 31.3351C16.62 31.2948 16.6774 31.2969 16.667 31.2969V33.2969C16.8733 33.2969 17.1475 33.266 17.4287 33.1262L16.5388 31.3351ZM17.5004 36.2657C17.5313 36.2657 17.5514 36.2719 17.5619 36.2762C17.5723 36.2804 17.5828 36.2866 17.5942 36.2974L16.2233 37.7536C16.5551 38.0661 17.013 38.2657 17.5004 38.2657V36.2657ZM17.6325 36.3355C17.6434 36.3469 17.667 36.3813 17.667 36.4375H15.667C15.667 36.941 15.8741 37.3895 16.1849 37.7155L17.6325 36.3355ZM17.667 36.4375C17.667 36.4938 17.6434 36.5282 17.6325 36.5396L16.1849 35.1596C15.8741 35.4856 15.667 35.9341 15.667 36.4375H17.667ZM17.6136 36.5589C17.583 36.5893 17.5514 36.6026 17.526 36.6075C17.4999 36.6126 17.4634 36.6121 17.4223 36.5944L18.2119 34.7569C17.5223 34.4606 16.7218 34.6255 16.2038 35.1402L17.6136 36.5589ZM17.4345 36.5996C17.4316 36.5984 17.4287 36.5969 17.4263 36.5954C17.424 36.5939 17.4237 36.5934 17.4254 36.595L18.7587 35.1042C18.5942 34.9571 18.4071 34.8377 18.1996 34.7517L17.4345 36.5996ZM17.3683 36.5396C17.3574 36.5281 17.3505 36.517 17.3455 36.5051C17.3406 36.4931 17.3337 36.471 17.3337 36.4375H19.3337C19.3337 35.9475 19.1305 35.4896 18.8159 35.1596L17.3683 36.5396ZM17.3337 36.4375C17.3337 36.4278 17.3341 36.4196 17.3345 36.4134C17.3349 36.4074 17.3353 36.4042 17.3352 36.405C17.3351 36.4063 17.3346 36.4102 17.3332 36.42C17.3325 36.4249 17.3317 36.4302 17.3307 36.4372C17.3297 36.4438 17.3285 36.4522 17.3273 36.4609L19.3069 36.7455C19.311 36.7169 19.3337 36.5839 19.3337 36.4375H17.3337ZM17.3309 36.4378C17.3407 36.3789 17.3584 36.3333 17.3738 36.3028L19.1604 37.2017C19.2258 37.0718 19.2768 36.9268 19.3033 36.7686L17.3309 36.4378ZM17.319 36.4342C17.3344 36.3884 17.3521 36.3583 17.3616 36.3442L19.0225 37.4584C19.0987 37.3449 19.1664 37.2155 19.2152 37.0703L17.319 36.4342ZM17.336 36.3844C17.3455 36.3687 17.354 36.3559 17.3608 36.3461C17.3676 36.3363 17.3733 36.3287 17.3772 36.3236C17.3812 36.3184 17.3841 36.3149 17.3853 36.3134C17.3865 36.312 17.3867 36.3117 17.3853 36.3134C17.3838 36.3151 17.3817 36.3176 17.3777 36.3221C17.3757 36.3245 17.3739 36.3264 17.3713 36.3295C17.3689 36.3323 17.366 36.3355 17.363 36.339C17.3571 36.3458 17.3496 36.3545 17.3414 36.3641C17.3332 36.3739 17.3236 36.3854 17.3131 36.3984L18.871 37.6526C18.8675 37.657 18.8667 37.6577 18.8734 37.6499C18.8758 37.6473 18.8935 37.627 18.9051 37.6134C18.9287 37.5858 18.9907 37.5132 19.0481 37.4182L17.336 36.3844ZM17.4254 36.2801C17.4237 36.2817 17.424 36.2812 17.4263 36.2797C17.4287 36.2782 17.4316 36.2767 17.4345 36.2755L18.1996 38.1233C18.4071 38.0374 18.5942 37.918 18.7587 37.7709L17.4254 36.2801ZM17.4345 36.2755C17.4367 36.2746 17.4424 36.2724 17.4523 36.2703C17.4622 36.2682 17.4783 36.2657 17.5004 36.2657V38.2657C17.7595 38.2657 17.9977 38.207 18.1996 38.1233L17.4345 36.2755ZM18.3337 42.0625C18.3558 42.0625 18.372 42.065 18.3819 42.0671C18.3917 42.0692 18.3974 42.0714 18.3996 42.0723L17.6345 43.9202C17.8364 44.0038 18.0747 44.0625 18.3337 44.0625V42.0625ZM18.3996 42.0723C18.4025 42.0735 18.4054 42.0751 18.4078 42.0766C18.4101 42.078 18.4104 42.0785 18.4087 42.077L17.0754 43.5678C17.2399 43.7149 17.427 43.8343 17.6345 43.9202L18.3996 42.0723ZM18.521 42.1953C18.5043 42.1746 18.4877 42.1539 18.471 42.1332C18.4543 42.1124 18.4377 42.0918 18.421 42.0711L16.8631 43.3252C16.8798 43.346 16.8965 43.3667 16.9131 43.3874C16.9298 43.4081 16.9465 43.4288 16.9631 43.4495L18.521 42.1953ZM18.4725 42.141C18.482 42.1552 18.4998 42.1852 18.5152 42.2311L16.619 42.8671C16.6677 43.0123 16.7355 43.1417 16.8116 43.2553L18.4725 42.141ZM18.4604 42.0996C18.4757 42.1302 18.4934 42.1758 18.5033 42.2346L16.5308 42.5654C16.5574 42.7236 16.6084 42.8686 16.6738 42.9986L18.4604 42.0996ZM18.5069 42.2577C18.5056 42.2491 18.5044 42.2407 18.5035 42.2341C18.5024 42.227 18.5017 42.2217 18.501 42.2169C18.4996 42.2071 18.4991 42.2031 18.4989 42.2019C18.4988 42.201 18.4992 42.2043 18.4996 42.2103C18.5 42.2165 18.5004 42.2247 18.5004 42.2344H16.5004C16.5004 42.3808 16.5231 42.5138 16.5272 42.5423L18.5069 42.2577ZM18.5004 42.2344C18.5004 42.2578 18.4977 42.2752 18.4954 42.2861C18.493 42.2969 18.4905 42.3035 18.4893 42.3064L16.6449 41.533C16.5602 41.735 16.5004 41.974 16.5004 42.2344H18.5004ZM18.4893 42.3064C18.4878 42.31 18.4859 42.3134 18.4842 42.3162C18.4825 42.3188 18.4818 42.3194 18.4833 42.3177L17.0009 40.9751C16.8527 41.1388 16.7319 41.3254 16.6449 41.533L18.4893 42.3064ZM18.4087 42.3918C18.4104 42.3903 18.4101 42.3908 18.4078 42.3922C18.4054 42.3937 18.4025 42.3953 18.3996 42.3965L17.6345 40.5486C17.427 40.6345 17.2399 40.7539 17.0754 40.9011L18.4087 42.3918ZM18.4211 42.3873C18.3725 42.4087 18.329 42.4083 18.3055 42.4037L18.6954 40.442C18.3385 40.3711 17.9616 40.4038 17.6131 40.5578L18.4211 42.3873ZM18.337 42.4094C18.2797 42.3999 18.2353 42.3829 18.2055 42.3681L19.0954 40.577C18.9655 40.5125 18.8211 40.4623 18.6638 40.4363L18.337 42.4094ZM18.336 42.4218C18.2913 42.407 18.262 42.3899 18.2481 42.3807L19.3527 40.7134C19.2389 40.638 19.1096 40.5712 18.9649 40.5233L18.336 42.4218ZM18.2883 42.406C18.2727 42.3967 18.2599 42.3883 18.2502 42.3816C18.2405 42.3749 18.2329 42.3693 18.2277 42.3654C18.2226 42.3615 18.2191 42.3587 18.2176 42.3575C18.2162 42.3564 18.216 42.3562 18.2176 42.3576C18.2194 42.359 18.2219 42.3612 18.2264 42.3651C18.2288 42.3672 18.2308 42.3689 18.2339 42.3715C18.2367 42.3739 18.2399 42.3767 18.2434 42.3797C18.2502 42.3856 18.259 42.393 18.2687 42.4011C18.2785 42.4093 18.2901 42.4189 18.3031 42.4292L19.5477 40.8637C19.552 40.8671 19.5528 40.8679 19.545 40.8612C19.5423 40.8589 19.5219 40.8412 19.5082 40.8297C19.4804 40.8062 19.4077 40.7449 19.3125 40.6881L18.2883 42.406ZM18.1842 42.3177C18.1857 42.3194 18.185 42.3188 18.1833 42.3162C18.1816 42.3134 18.1797 42.31 18.1782 42.3064L20.0226 41.533C19.9356 41.3254 19.8148 41.1388 19.6666 40.9751L18.1842 42.3177ZM18.1782 42.3064C18.177 42.3035 18.1745 42.2969 18.1721 42.2861C18.1698 42.2752 18.1671 42.2578 18.1671 42.2344H20.1671C20.1671 41.974 20.1073 41.735 20.0226 41.533L18.1782 42.3064ZM18.1671 42.2344C18.1671 42.2247 18.1675 42.2165 18.1679 42.2103C18.1683 42.2043 18.1687 42.201 18.1686 42.2019C18.1684 42.2031 18.1679 42.2071 18.1665 42.2169C18.1658 42.2217 18.1651 42.2271 18.164 42.2341C18.1631 42.2407 18.1618 42.2491 18.1606 42.2577L20.1403 42.5423C20.1444 42.5138 20.1671 42.3808 20.1671 42.2344H18.1671ZM18.1642 42.2346C18.1741 42.1758 18.1918 42.1302 18.2071 42.0996L19.9937 42.9986C20.0591 42.8686 20.1101 42.7237 20.1367 42.5654L18.1642 42.2346ZM18.1523 42.2311C18.1677 42.1852 18.1855 42.1552 18.195 42.141L19.8559 43.2553C19.932 43.1417 19.9998 43.0123 20.0485 42.8671L18.1523 42.2311ZM18.2465 42.0711C18.2298 42.0918 18.2132 42.1124 18.1965 42.1332C18.1798 42.1539 18.1632 42.1746 18.1465 42.1953L19.7044 43.4495C19.721 43.4288 19.7377 43.4081 19.7544 43.3874C19.771 43.3667 19.7877 43.346 19.8044 43.3252L18.2465 42.0711ZM18.3031 42.0396C18.2901 42.0499 18.2785 42.0595 18.2687 42.0677C18.259 42.0758 18.2502 42.0832 18.2434 42.0891C18.2399 42.0921 18.2367 42.0949 18.2339 42.0973C18.2308 42.0999 18.2288 42.1017 18.2264 42.1037C18.2219 42.1076 18.2194 42.1098 18.2176 42.1112C18.216 42.1126 18.2162 42.1124 18.2176 42.1113C18.2191 42.1101 18.2226 42.1073 18.2277 42.1034C18.2329 42.0995 18.2405 42.0939 18.2502 42.0872C18.2599 42.0805 18.2727 42.0721 18.2883 42.0628L19.3125 43.7807C19.4077 43.7239 19.4804 43.6626 19.5082 43.6391C19.5219 43.6276 19.5423 43.6099 19.545 43.6076C19.5528 43.6009 19.552 43.6017 19.5477 43.6051L18.3031 42.0396ZM18.2481 42.0881C18.262 42.0789 18.2913 42.0618 18.336 42.047L18.9649 43.9455C19.1096 43.8976 19.2389 43.8308 19.3527 43.7554L18.2481 42.0881ZM18.2055 42.1007C18.2353 42.0859 18.2798 42.0689 18.337 42.0594L18.6638 44.0325C18.821 44.0065 18.9655 43.9564 19.0954 43.8918L18.2055 42.1007ZM18.3599 42.0559C18.3446 42.058 18.3338 42.0596 18.3237 42.0609C18.3139 42.0622 18.3079 42.063 18.3042 42.0634C18.3005 42.0638 18.3012 42.0636 18.3053 42.0634C18.3092 42.0631 18.3192 42.0625 18.3337 42.0625V44.0625C18.4688 44.0625 18.6029 44.0414 18.641 44.036L18.3599 42.0559Z" fill="black" mask="url(#path-2-inside-1_0_1)"/>
</svg>
