<svg width="93" height="73" viewBox="0 0 93 73" fill="none" xmlns="http://www.w3.org/2000/svg">
<path d="M16.9614 27.3829C9.06082 33.8193 3.62986 46.4978 7.03599 57.4056C9.63636 65.7335 16.6945 70.9195 23.8207 72.4064C30.9469 73.8934 38.23 72.3118 45.3405 70.7356C51.4778 69.3747 57.6151 68.0139 63.7524 66.653C67.4044 65.8439 71.182 64.9717 74.2376 62.3708C80.3382 57.1744 82.3997 46.1037 89.2224 42.5361C90.431 41.9003 91.8437 41.4485 92.5396 40.0718C93.0471 39.0683 93.0419 37.7968 92.9477 36.6198C92.6495 32.9681 91.6187 29.4057 89.9811 26.3425C87.2813 21.2985 83.0485 17.7676 78.5855 15.2771C68.9845 9.91778 57.5784 9.29252 48.0403 15.1352C38.2614 21.1303 26.5937 19.5435 16.9614 27.3829Z" fill="#FFDCDC"/>
<path d="M48.9995 28.6858C47.2852 21.0693 44.7673 13.6587 41.4888 6.57979C38.8289 1.1172 31.5263 0.45393 26.1496 0C19.96 0.0330532 10.6264 0.286461 7.4494 6.57979C5.2584 11.8529 0.773423 21.8151 0 29.1243C0.622606 30.213 1.59885 31.0531 2.7647 31.5033C3.93055 31.9536 5.21495 31.9865 6.4021 31.5966C6.53336 31.5584 6.65174 31.4849 6.74442 31.3839C6.8371 31.2829 6.90057 31.1584 6.92794 31.0237C7.98838 26.3108 9.70712 21.7727 12.033 17.5446C12.874 23.1896 12.9977 28.9193 12.4011 34.5957C14.614 39.3157 32.9658 38.7185 36.2457 35.3008C36.3523 35.22 36.4356 35.1121 36.4868 34.9881C36.538 34.8641 36.5554 34.7286 36.5371 34.5957C35.9425 28.9191 36.0669 23.1896 36.9074 17.5446C39.2319 21.7734 40.9506 26.3113 42.0124 31.0237C42.0395 31.1588 42.1032 31.2838 42.1963 31.3849C42.2895 31.486 42.4086 31.5592 42.5405 31.5966C45.323 32.6918 49.0477 30.2943 48.9995 28.6858ZM26.1496 1.49841C27.3867 1.4996 28.6216 1.60426 29.8414 1.81131C29.6531 3.10793 29.0071 4.29308 28.0214 5.15008C27.0358 6.00708 25.7764 6.47869 24.4735 6.47869C23.1706 6.47869 21.9112 6.00708 20.9255 5.15008C19.9399 4.29308 19.2938 3.10793 19.1055 1.81131C21.4407 1.50866 23.797 1.40399 26.1496 1.49841ZM34.4491 27.346C31.7016 26.3698 29.791 30.8078 27.2801 28.4147C26.534 27.667 25.5235 27.2471 24.4702 27.2471C23.4168 27.2471 22.4064 27.667 21.6602 28.4147C19.031 30.8386 17.2344 26.2376 14.2963 27.3857C14.2963 26.2002 14.2634 24.9992 14.1999 23.8005C14.6659 23.5571 15.1965 23.4684 15.7157 23.5472C16.2349 23.626 16.716 23.8682 17.0898 24.239C17.8367 24.9845 18.8464 25.4028 19.8987 25.4028C20.951 25.4028 21.9606 24.9845 22.7075 24.239C23.174 23.7745 23.8039 23.5139 24.4603 23.5139C25.1168 23.5139 25.7467 23.7745 26.2131 24.239C26.6149 24.6278 27.0913 24.9301 27.6132 25.1274C28.135 25.3248 28.6914 25.4131 29.2484 25.3869C29.8053 25.3607 30.3511 25.2206 30.8524 24.9751C31.3537 24.7296 31.7999 24.3839 32.1639 23.9591C32.5368 23.7005 32.9729 23.5493 33.4251 23.5217C33.8772 23.4941 34.3283 23.5913 34.7295 23.8027C34.6638 25.0014 34.631 26.2024 34.631 27.3879L34.4491 27.346ZM34.8435 22.2139C33.8632 21.8915 32.7968 21.9634 31.8681 22.4145C30.536 23.4325 28.7876 24.7172 27.2801 23.1791C26.5337 22.4319 25.5234 22.0124 24.4702 22.0124C23.417 22.0124 22.4067 22.4319 21.6602 23.1791C21.374 23.4293 21.0395 23.6175 20.6778 23.7321C20.316 23.8466 19.9347 23.8851 19.5575 23.845C19.1804 23.8049 18.8155 23.6871 18.4855 23.499C18.1556 23.3109 17.8677 23.0565 17.6397 22.7516C17.1311 22.3908 16.5459 22.1544 15.9305 22.0611C15.315 21.9677 14.6865 22.0201 14.0947 22.2139C14.0056 21.0666 13.8858 19.9538 13.7354 18.8756C15.9987 16.9232 17.6113 20.3564 19.903 20.1735C22.2387 20.3475 23.9893 16.7293 26.2263 19.0012C26.9735 19.7461 27.983 20.1641 29.0351 20.1641C30.0873 20.1641 31.0968 19.7461 31.844 19.0012C32.2928 18.572 32.882 18.3224 33.5009 18.2993C34.1198 18.2761 34.7257 18.4811 35.205 18.8756C35.056 19.9597 34.9333 21.0725 34.8369 22.2139H34.8435ZM13.926 34.404C14.018 33.5997 14.213 31.6451 14.2766 28.9876C14.676 28.8013 15.1171 28.7235 15.5558 28.7622C15.9944 28.8009 16.4154 28.9546 16.7765 29.208C17.1404 29.6309 17.5861 29.9747 18.0866 30.2185C18.587 30.4623 19.1316 30.6009 19.6872 30.6258C20.2427 30.6508 20.7974 30.5616 21.3175 30.3636C21.8375 30.1657 22.312 29.8632 22.7119 29.4746C23.1786 29.0106 23.8084 28.7504 24.4647 28.7504C25.121 28.7504 25.7508 29.0106 26.2175 29.4746C26.6306 29.8664 27.1187 30.1694 27.652 30.3652C28.1853 30.561 28.7527 30.6455 29.3196 30.6136C29.8864 30.5816 30.4409 30.4339 30.9491 30.1793C31.4573 29.9248 31.9087 29.5688 32.2756 29.1331C32.6285 28.9114 33.0311 28.7824 33.4464 28.7578C33.8617 28.7331 34.2765 28.8137 34.6529 28.992C34.7186 31.6363 34.9136 33.593 35.0056 34.4018C31.4847 37.2399 17.471 37.2399 13.926 34.404ZM43.373 30.2613C42.0999 24.8937 40.013 19.7551 37.1857 15.026C35.7768 13.7038 35.6344 16.3261 35.4526 17.2538C34.7047 16.8535 33.849 16.7046 33.0108 16.8287C32.1727 16.9528 31.396 17.3434 30.7945 17.9435C30.3219 18.3961 29.6943 18.6486 29.0417 18.6486C28.3891 18.6486 27.7615 18.3961 27.2889 17.9435C26.5427 17.1957 25.5323 16.7759 24.479 16.7759C23.4256 16.7759 22.4152 17.1957 21.669 17.9435C21.1964 18.3961 20.5688 18.6486 19.9162 18.6486C19.2636 18.6486 18.636 18.3961 18.1634 17.9435C17.5602 17.3393 16.78 16.9462 15.9377 16.822C15.0955 16.6978 14.2358 16.8492 13.4856 17.2538C13.3059 16.3261 13.1613 13.6928 11.7525 15.026C8.92533 19.7549 6.83915 24.8936 5.56733 30.2613C4.80138 30.4339 4.00172 30.374 3.26962 30.0892C2.53753 29.8045 1.90593 29.3076 1.45482 28.6615C3.16217 21.267 5.62783 14.0706 8.8122 7.18796C10.1728 3.68212 14.4781 3.06072 17.6354 2.10879C17.8949 3.74406 18.7256 5.23269 19.9783 6.30739C21.231 7.38208 22.8236 7.97243 24.4702 7.97243C26.1167 7.97243 27.7093 7.38208 28.962 6.30739C30.2147 5.23269 31.0454 3.74406 31.305 2.10879C34.4644 3.06293 38.7654 3.68212 40.1304 7.18796C43.3132 14.0708 45.7774 21.2672 47.4834 28.6615C47.035 29.3078 46.4055 29.8051 45.675 30.09C44.9445 30.3749 44.1461 30.4346 43.3818 30.2613H43.373Z" fill="black"/>
</svg>
