<svg width="89" height="71" viewBox="0 0 89 71" fill="none" xmlns="http://www.w3.org/2000/svg">
<path d="M12.9614 25.3829C5.06082 31.8193 -0.370137 44.4978 3.03599 55.4056C5.63636 63.7335 12.6945 68.9195 19.8207 70.4064C26.9469 71.8934 34.23 70.3118 41.3405 68.7356C47.4778 67.3747 53.6151 66.0139 59.7524 64.653C63.4044 63.8439 67.182 62.9717 70.2376 60.3708C76.3382 55.1744 78.3997 44.1037 85.2224 40.5361C86.431 39.9003 87.8437 39.4485 88.5396 38.0718C89.0471 37.0683 89.0419 35.7968 88.9477 34.6198C88.6495 30.9681 87.6187 27.4057 85.9811 24.3425C83.2813 19.2985 79.0485 15.7676 74.5855 13.2771C64.9845 7.91778 53.5784 7.29252 44.0403 13.1352C34.2614 19.1303 22.5937 17.5435 12.9614 25.3829Z" fill="#FFDCDC"/>
<path d="M6.69592 4.46398C6.66675 4.46413 6.63762 4.46198 6.60881 4.45758C6.46446 4.43536 6.33513 4.35855 6.24925 4.24404C6.16337 4.12953 6.12797 3.98669 6.15083 3.84691L6.51214 1.64054C6.52169 1.56983 6.54577 1.50168 6.58297 1.44013C6.62017 1.37858 6.66974 1.32487 6.72873 1.28217C6.78773 1.23947 6.85497 1.20865 6.92648 1.19153C6.99798 1.17441 7.07231 1.17134 7.14506 1.18249C7.21781 1.19364 7.28752 1.2188 7.35007 1.25647C7.41261 1.29414 7.46673 1.34356 7.50921 1.40182C7.5517 1.46007 7.5817 1.52598 7.59744 1.59565C7.61318 1.66532 7.61435 1.73733 7.60086 1.80744L7.23991 4.01381C7.21937 4.13923 7.15331 4.25345 7.05361 4.33596C6.9539 4.41847 6.82708 4.46386 6.69592 4.46398Z" fill="black"/>
<path d="M15.3035 4.46398C15.1723 4.46386 15.0455 4.41847 14.9458 4.33596C14.8461 4.25345 14.7801 4.13923 14.7595 4.01381L14.3986 1.80744C14.3851 1.73733 14.3862 1.66532 14.402 1.59565C14.4177 1.52598 14.4477 1.46007 14.4902 1.40182C14.5327 1.34356 14.5868 1.29414 14.6494 1.25647C14.7119 1.2188 14.7816 1.19364 14.8544 1.18249C14.9271 1.17134 15.0014 1.17441 15.0729 1.19153C15.1445 1.20865 15.2117 1.23947 15.2707 1.28217C15.3297 1.32487 15.3792 1.37858 15.4164 1.44013C15.4537 1.50168 15.4777 1.56983 15.4873 1.64054L15.8486 3.84691C15.8715 3.98669 15.8361 4.12953 15.7502 4.24404C15.6643 4.35855 15.535 4.43536 15.3906 4.45758C15.3618 4.46198 15.3327 4.46413 15.3035 4.46398Z" fill="black"/>
<path d="M19.708 7.05113L18.7185 6.4853C18.3817 6.29277 18.0921 6.03156 17.8699 5.71982C17.6478 5.40807 17.4984 5.05325 17.4321 4.68L17.3181 4.03944H18.8251C18.9713 4.03944 19.1116 3.9832 19.215 3.88309C19.3184 3.78298 19.3765 3.64721 19.3765 3.50564C19.3765 3.36406 19.3184 3.22829 19.215 3.12818C19.1116 3.02808 18.9713 2.97184 18.8251 2.97184H3.35441C3.20819 2.97184 3.06795 3.02808 2.96455 3.12818C2.86116 3.22829 2.80307 3.36406 2.80307 3.50564C2.80307 3.64721 2.86116 3.78298 2.96455 3.88309C3.06795 3.9832 3.20819 4.03944 3.35441 4.03944H4.68021L4.56627 4.68C4.50003 5.05314 4.35075 5.40788 4.1288 5.71961C3.90685 6.03135 3.61753 6.29261 3.2809 6.4853L2.29252 7.05113C2.22846 7.08592 2.17222 7.13275 2.12711 7.18888C2.08201 7.245 2.04894 7.30929 2.02984 7.37796C2.01075 7.44663 2.00603 7.5183 2.01595 7.58877C2.02586 7.65923 2.05023 7.72707 2.0876 7.78829C2.12497 7.84951 2.1746 7.90289 2.23358 7.94528C2.29255 7.98767 2.35968 8.01823 2.43102 8.03515C2.50236 8.05208 2.57648 8.05503 2.64902 8.04384C2.72155 8.03265 2.79105 8.00753 2.85342 7.96998L3.8418 7.40415C4.31605 7.13297 4.72367 6.7651 5.03633 6.32608C5.34899 5.88706 5.55922 5.38742 5.65241 4.86184L5.79944 4.0405H11.8907V8.87245C11.8918 9.4274 11.7487 9.97371 11.4745 10.461C11.2003 10.9484 10.8038 11.361 10.3216 11.661L9.25857 12.3254C9.19644 12.3629 9.14264 12.4119 9.10029 12.4697C9.05794 12.5274 9.02789 12.5928 9.0119 12.6619C8.9959 12.7311 8.99428 12.8026 9.00712 12.8723C9.01997 12.9421 9.04702 13.0086 9.08671 13.0681C9.1264 13.1277 9.17793 13.1789 9.2383 13.219C9.29866 13.259 9.36665 13.287 9.43831 13.3014C9.50997 13.3157 9.58386 13.3161 9.65567 13.3025C9.72748 13.2889 9.79578 13.2616 9.85659 13.2222L10.9196 12.5578C11.5569 12.1614 12.081 11.616 12.4434 10.9719C12.8058 10.3279 12.9949 9.60588 12.9934 8.87245V4.04015H16.2004L16.3474 4.86149C16.4406 5.38722 16.651 5.88699 16.9639 6.32608C17.2767 6.76517 17.6846 7.13304 18.1591 7.40415L19.1475 7.96998C19.2098 8.00753 19.2793 8.03265 19.3519 8.04384C19.4244 8.05503 19.4985 8.05208 19.5699 8.03515C19.6412 8.01823 19.7083 7.98767 19.7673 7.94528C19.8263 7.90289 19.8759 7.84951 19.9133 7.78829C19.9507 7.72707 19.975 7.65923 19.9849 7.58877C19.9949 7.5183 19.9901 7.44663 19.971 7.37796C19.952 7.30929 19.9189 7.245 19.8738 7.18888C19.8287 7.13275 19.7721 7.08592 19.708 7.05113Z" fill="black"/>
<path d="M10.9997 2.48039C11.2587 2.48039 11.4687 2.27709 11.4687 2.0263C11.4687 1.77552 11.2587 1.57222 10.9997 1.57222C10.7407 1.57222 10.5307 1.77552 10.5307 2.0263C10.5307 2.27709 10.7407 2.48039 10.9997 2.48039Z" fill="black"/>
<path d="M21.9163 13.6265C21.7281 9.56283 20.7842 2.98607 20.4994 1.0644C20.4536 0.768799 20.2999 0.498882 20.0661 0.303601C19.8324 0.10832 19.5341 0.000607792 19.2254 0H2.77403C2.46533 0.000901343 2.16718 0.108879 1.93366 0.304353C1.70013 0.499827 1.54669 0.769853 1.50116 1.06546C1.2163 2.98465 0.272401 9.56283 0.0842086 13.6275C-0.220133 20.2032 0.388917 39.9118 0.513889 43.7957C0.523296 44.1194 0.663186 44.4266 0.903619 44.6517C1.14405 44.8768 1.46593 45.0018 1.80036 45H6.98887C7.3065 45 7.61292 44.8863 7.84914 44.6808C8.08537 44.4752 8.23469 44.1923 8.26835 43.8865L10.9997 19.0677L13.7311 43.8854C13.7647 44.1912 13.9141 44.4741 14.1503 44.6797C14.3865 44.8853 14.6929 44.999 15.0106 44.9989H20.1994C20.5339 45.0007 20.8557 44.8757 21.0962 44.6506C21.3366 44.4256 21.4765 44.1183 21.4859 43.7947C21.6105 39.9107 22.2196 20.2022 21.9163 13.6265ZM20.3843 43.7612C20.3822 43.807 20.362 43.8503 20.3277 43.882C20.2935 43.9137 20.2479 43.9314 20.2005 43.9313H15.0106C14.965 43.9316 14.9209 43.9154 14.8869 43.8859C14.853 43.8564 14.8315 43.8158 14.8268 43.7719L14.7279 42.8755H19.4279C19.5741 42.8755 19.7144 42.8192 19.8178 42.7191C19.9212 42.619 19.9793 42.4832 19.9793 42.3417C19.9793 42.2001 19.9212 42.0643 19.8178 41.9642C19.7144 41.8641 19.5741 41.8079 19.4279 41.8079H14.6129L11.6554 14.9496L11.6529 14.9307C11.6274 14.779 11.5464 14.6413 11.4247 14.5426C11.303 14.444 11.1487 14.3909 10.99 14.3932C10.8313 14.3955 10.6787 14.4529 10.5601 14.5551C10.4415 14.6572 10.3648 14.7972 10.344 14.9496L7.38804 41.8079H2.5715C2.42528 41.8079 2.28504 41.8641 2.18164 41.9642C2.07825 42.0643 2.02016 42.2001 2.02016 42.3417C2.02016 42.4832 2.07825 42.619 2.18164 42.7191C2.28504 42.8192 2.42528 42.8755 2.5715 42.8755H7.27042L7.17155 43.7719C7.16681 43.8158 7.14537 43.8564 7.1114 43.8859C7.07744 43.9154 7.03337 43.9316 6.98777 43.9313H1.79999C1.75262 43.9314 1.70706 43.9137 1.67281 43.882C1.63857 43.8503 1.61829 43.807 1.61621 43.7612C1.49124 39.8823 0.883289 20.2114 1.18579 13.6745C1.37178 9.65927 2.30943 3.12415 2.59245 1.21706C2.59887 1.17507 2.62081 1.13677 2.65421 1.10927C2.68762 1.08178 2.73019 1.06697 2.77403 1.0676H9.00605V10.1586C9.00605 10.3001 9.06414 10.4359 9.16754 10.536C9.27093 10.6361 9.41117 10.6924 9.5574 10.6924C9.70362 10.6924 9.84386 10.6361 9.94726 10.536C10.0507 10.4359 10.1087 10.3001 10.1087 10.1586V1.0676H19.2243C19.2681 1.06696 19.3106 1.08172 19.344 1.10914C19.3774 1.13656 19.3994 1.17478 19.4059 1.21671C19.6889 3.12415 20.6265 9.65927 20.8125 13.6745C21.1161 20.2114 20.5082 39.884 20.3832 43.7612H20.3843Z" fill="black"/>
</svg>
